<svg xmlns="http://www.w3.org/2000/svg" viewBox="0 0 400.03 465.93"><defs><style>.cls-1{fill:#231f20;}.cls-2,.cls-3,.cls-5{fill:#242424;}.cls-2{stroke:#242424;}.cls-10,.cls-2,.cls-3,.cls-7,.cls-8,.cls-9{stroke-miterlimit:10;}.cls-3{stroke:#231f20;}.cls-4{fill:#414042;}.cls-6,.cls-8{fill:#fff;}.cls-7{fill:#7f3f98;stroke:#7f3f98;}.cls-8{stroke:#fff;}.cls-9{fill:#6d6e71;stroke:#6d6e71;}.cls-10{stroke:#000;}</style></defs><title>thespACElogo</title><g id="Layer_1" data-name="Layer 1"><path class="cls-1" d="M216.9,62.05s0,0,0,.06V62A.14.14,0,0,0,216.9,62.05Z" transform="translate(-99.98 -61.99)"/><path class="cls-1" d="M216.91,62v.12a.13.13,0,0,1,0-.06S216.91,62,216.91,62Z" transform="translate(-99.98 -61.99)"/></g><g id="spade"><path class="cls-2" d="M143.47,300.5h-.13c0-.08,0-.16,0-.24h0C143.44,300.34,143.45,300.42,143.47,300.5Z" transform="translate(-99.98 -61.99)"/><path class="cls-3" d="M299.45,394.67a19.2,19.2,0,0,1-1.1,3.65,15,15,0,0,1-.85,1.76c.73-4,1.37-8.18,1.91-12.45Z" transform="translate(-99.98 -61.99)"/><path class="cls-3" d="M302.47,400c-.3-.55-.58-1.11-.83-1.7a19.07,19.07,0,0,1-1.1-3.71l0-7Q301.38,394,302.47,400Z" transform="translate(-99.98 -61.99)"/><path class="cls-4" d="M489.92,394.34c-16.72,30.88-47.14,50.65-79,53.68-37,3.5-74-14.08-101.74-40.1a33.28,33.28,0,0,1-6.7-7.9q-1.1-6-1.9-12.39l0,7a19.07,19.07,0,0,0,1.1,3.71c.25.59.53,1.15.83,1.7,18.11,100.41,91.84,127.88,91.84,127.88H300v0H205.67s73.72-27.48,91.83-127.84a15,15,0,0,0,.85-1.76,19.2,19.2,0,0,0,1.1-3.65l0-7c-.54,4.27-1.18,8.41-1.91,12.45a33.06,33.06,0,0,1-6.67,7.84c-27.74,26-64.73,43.6-101.74,40.1-31.86-3-62.28-22.8-79-53.68C91.72,360.46,101,312.6,117.49,280c14.2-28,35.29-50.71,58.26-69.57,23.47-19.26,51-31.17,73.09-52.93,24.06-23.7,44-54.22,51.14-89.31a.29.29,0,0,1,0-.1.38.38,0,0,0,0,.1c7.16,35.09,27.07,65.61,51.14,89.31,22.06,21.76,49.63,33.67,73.09,52.93,23,18.86,44.06,41.56,58.25,69.57C499,312.6,508.3,360.46,489.92,394.34Z" transform="translate(-99.98 -61.99)"/><path class="cls-5" d="M299.41,387.63l0,7a19.2,19.2,0,0,1-1.1,3.65,15,15,0,0,1-.85,1.76C298.23,396,298.87,391.9,299.41,387.63Z" transform="translate(-99.98 -61.99)"/><path class="cls-5" d="M302.47,400c-.3-.55-.58-1.11-.83-1.7a19.07,19.07,0,0,1-1.1-3.71l0-7Q301.38,394,302.47,400Z" transform="translate(-99.98 -61.99)"/><path class="cls-6" d="M302,374.52l0,5.53a16.36,16.36,0,0,1-.85,2.87,15,15,0,0,1-.69,1.39C301.07,381.13,301.58,377.87,302,374.52Z" transform="translate(-99.98 -61.99)"/><path class="cls-6" d="M302.91,374.52c.43,3.34.92,6.59,1.49,9.74-.23-.44-.45-.87-.65-1.34a15.15,15.15,0,0,1-.86-2.91Z" transform="translate(-99.98 -61.99)"/><path class="cls-7" d="M375.66,484.39H229.27c7.12-3,53.41-24.9,69.13-90.14h8.11C322.23,459.49,368.52,481.37,375.66,484.39Z" transform="translate(-99.98 -61.99)"/><path class="cls-7" d="M375.66,484.39l.93.38H228.33s.33-.12.94-.39Z" transform="translate(-99.98 -61.99)"/><path class="cls-8" d="M451.74,379.8a82.51,82.51,0,0,1-9.93,14.45H313.88q-2.16-1.85-4.21-3.79a26.18,26.18,0,0,1-5.27-6.2c-.57-3.15-1.06-6.4-1.49-9.74l0,5.49a15.15,15.15,0,0,0,.86,2.91c.2.47.42.9.65,1.34.63,3.45,1.33,6.77,2.11,10H298.4c.78-3.21,1.47-6.51,2.09-9.94a15,15,0,0,0,.69-1.39,16.36,16.36,0,0,0,.85-2.87l0-5.53c-.42,3.35-.93,6.61-1.51,9.79a25.37,25.37,0,0,1-5.24,6.15q-2.06,1.95-4.2,3.79H163.13a82.51,82.51,0,0,1-9.93-14.45c-11.95-22.05-9-51.63-.3-75.69H452C460.76,328.17,463.69,357.75,451.74,379.8Z" transform="translate(-99.98 -61.99)"/><path class="cls-9" d="M452,304.11H152.9A132.37,132.37,0,0,1,159,289.93c11.16-22,27.72-39.85,45.79-54.67,9.8-8.06,20.52-14.48,31-21.29H369.1c10.5,6.81,21.22,13.23,31,21.29,18.05,14.82,34.62,32.66,45.78,54.67A126.56,126.56,0,0,1,452,304.11Z" transform="translate(-99.98 -61.99)"/><path class="cls-10" d="M369.1,214H235.83c9.24-6,18.3-12.31,26.43-20.33,18.81-18.54,34.43-42.39,40.1-69.82h.2c5.68,27.43,21.29,51.28,40.1,69.82C350.78,201.66,359.85,208,369.1,214Z" transform="translate(-99.98 -61.99)"/><path class="cls-7" d="M441.81,394.25c-13.59,15.91-32.54,25.87-52.17,27.73-27.28,2.58-54.5-9.37-75.76-27.73Z" transform="translate(-99.98 -61.99)"/><path class="cls-7" d="M291.05,394.25c-21.26,18.36-48.5,30.31-75.76,27.73-19.64-1.86-38.57-11.82-52.16-27.73Z" transform="translate(-99.98 -61.99)"/></g></svg>