<svg id="Layer_1" data-name="Layer 1" xmlns="http://www.w3.org/2000/svg" viewBox="0 0 552.29 198.83"><defs><style>.cls-1,.cls-3{fill:#242424;}.cls-1{stroke:#231f20;}.cls-1,.cls-5,.cls-6,.cls-7,.cls-8{stroke-miterlimit:10;}.cls-2,.cls-9{fill:#414042;}.cls-4,.cls-6{fill:#fff;}.cls-5{fill:#7f3f98;stroke:#7f3f98;}.cls-6{stroke:#fff;}.cls-7{fill:#6d6e71;stroke:#6d6e71;}.cls-8{stroke:#000;}.cls-9{font-size:75px;font-family:BreeSerifTh, Bree Serif;}.cls-10,.cls-11{font-size:90px;font-family:BreeSerifSb, Bree Serif;}.cls-10{letter-spacing:-0.03em;}</style></defs><title>thespACElogowithwords</title><path class="cls-1" d="M112.16,191.8a8.7,8.7,0,0,1-.47,1.58c-.11.26-.24.51-.37.76.31-1.75.59-3.54.83-5.39Z" transform="translate(-25.91 -50.58)"/><path class="cls-1" d="M113.47,194.11c-.13-.24-.25-.48-.36-.73a8.28,8.28,0,0,1-.48-1.61l0-3Q113,191.51,113.47,194.11Z" transform="translate(-25.91 -50.58)"/><path class="cls-2" d="M194.52,191.66c-7.23,13.35-20.38,21.9-34.16,23.21-16,1.51-32-6.09-44-17.34a14.23,14.23,0,0,1-2.9-3.42q-.48-2.6-.82-5.36l0,3a8.28,8.28,0,0,0,.48,1.61c.11.25.23.49.36.73,7.83,43.42,39.71,55.3,39.71,55.3H71.61s31.88-11.88,39.71-55.28c.13-.25.26-.5.37-.76a8.7,8.7,0,0,0,.47-1.58v-3.05c-.24,1.85-.52,3.64-.83,5.39a14.47,14.47,0,0,1-2.89,3.39c-12,11.25-28,18.85-44,17.34-13.77-1.31-26.93-9.86-34.17-23.21-7.93-14.65-3.94-35.35,3.21-49.45,6.14-12.11,15.26-21.93,25.19-30.08,10.15-8.33,22.07-13.48,31.61-22.89,10.4-10.25,19-23.44,22.11-38.62,0,0,0,0,0,0s0,0,0,0C115.5,65.8,124.11,79,134.52,89.24c9.54,9.41,21.46,14.56,31.61,22.89,9.93,8.15,19.05,18,25.19,30.08C198.46,156.31,202.47,177,194.52,191.66Z" transform="translate(-25.91 -50.58)"/><path class="cls-3" d="M112.15,188.75v3.05a8.7,8.7,0,0,1-.47,1.58c-.11.26-.24.51-.37.76C111.63,192.39,111.91,190.6,112.15,188.75Z" transform="translate(-25.91 -50.58)"/><path class="cls-3" d="M113.47,194.11c-.13-.24-.25-.48-.36-.73a8.28,8.28,0,0,1-.48-1.61l0-3Q113,191.51,113.47,194.11Z" transform="translate(-25.91 -50.58)"/><path class="cls-4" d="M113.27,183.09v2.39a7.68,7.68,0,0,1-.37,1.24,5.59,5.59,0,0,1-.3.6Q113,185.25,113.27,183.09Z" transform="translate(-25.91 -50.58)"/><path class="cls-4" d="M113.66,183.09c.19,1.44.39,2.85.64,4.21-.1-.19-.19-.38-.28-.58a6.27,6.27,0,0,1-.37-1.26Z" transform="translate(-25.91 -50.58)"/><path class="cls-5" d="M145.11,230.6H81.82c3.07-1.31,23.09-10.77,29.89-39h3.5C122,219.83,142,229.29,145.11,230.6Z" transform="translate(-25.91 -50.58)"/><path class="cls-5" d="M145.11,230.6l.41.16H81.41l.41-.16Z" transform="translate(-25.91 -50.58)"/><path class="cls-6" d="M178,185.37a35.46,35.46,0,0,1-4.29,6.25H118.4c-.62-.54-1.23-1.08-1.82-1.64a11.49,11.49,0,0,1-2.28-2.68c-.25-1.36-.45-2.77-.64-4.21v2.37a6.27,6.27,0,0,0,.37,1.26c.09.2.18.39.28.58.27,1.49.58,2.92.91,4.32h-3.5c.34-1.39.63-2.82.9-4.3a5.59,5.59,0,0,0,.3-.6,7.68,7.68,0,0,0,.37-1.24v-2.39q-.28,2.16-.66,4.23a10.89,10.89,0,0,1-2.26,2.66c-.6.56-1.2,1.1-1.82,1.64H53.21a36.56,36.56,0,0,1-4.29-6.25c-5.17-9.54-3.9-22.33-.13-32.73H178.14C181.92,163,183.18,175.83,178,185.37Z" transform="translate(-25.91 -50.58)"/><path class="cls-7" d="M178.14,152.64H48.79a57.38,57.38,0,0,1,2.65-6.13c4.83-9.52,12-17.24,19.8-23.64a144.9,144.9,0,0,1,13.41-9.21h57.63a142.26,142.26,0,0,1,13.41,9.21c7.81,6.4,15,14.12,19.8,23.64A55.42,55.42,0,0,1,178.14,152.64Z" transform="translate(-25.91 -50.58)"/><path class="cls-8" d="M142.28,113.66H84.65a70.17,70.17,0,0,0,11.43-8.79c8.14-8,14.89-18.33,17.34-30.19h.09c2.45,11.86,9.2,22.17,17.34,30.19A69.74,69.74,0,0,0,142.28,113.66Z" transform="translate(-25.91 -50.58)"/><path class="cls-5" d="M173.72,191.62a34.27,34.27,0,0,1-22.56,12c-11.79,1.11-23.57-4.05-32.76-12Z" transform="translate(-25.91 -50.58)"/><path class="cls-5" d="M108.53,191.62c-9.19,7.94-21,13.1-32.76,12a34.27,34.27,0,0,1-22.56-12Z" transform="translate(-25.91 -50.58)"/><text class="cls-9" transform="translate(190.45 123.69)">the sp<tspan class="cls-10" x="198.22" y="0">A</tspan><tspan class="cls-11" x="256.81" y="0">CE</tspan></text></svg>