<svg xmlns="http://www.w3.org/2000/svg" xmlns:xlink="http://www.w3.org/1999/xlink" viewBox="0 0 386.72 351.02"><defs><style>.cls-1{isolation:isolate;}.cls-2{mix-blend-mode:color-burn;fill:url(#radial-gradient);}.cls-3{fill:#6b4e38;}.cls-11,.cls-13,.cls-14,.cls-4{fill:#fff;}.cls-5{fill:#6e6f72;}.cls-12,.cls-6{fill:#fab884;}.cls-7{fill:#804097;}.cls-8{fill:#946142;}.cls-9{fill:#49361f;}.cls-10{fill:#e4bb9a;}.cls-11,.cls-13{opacity:0.4;}.cls-11,.cls-13,.cls-14{mix-blend-mode:soft-light;}.cls-12,.cls-13,.cls-14{fill-rule:evenodd;}.cls-14{opacity:0.8;}</style><radialGradient id="radial-gradient" cx="465.36" cy="9.1" r="3477" gradientUnits="userSpaceOnUse"><stop offset="0" stop-color="#fff"/><stop offset="0.09" stop-color="#cfad9b"/><stop offset="0.18" stop-color="#a66644"/><stop offset="0.22" stop-color="#964a22"/><stop offset="0.65" stop-color="#551e0f"/><stop offset="0.99" stop-color="#351514"/></radialGradient></defs><title>acecake</title><g class="cls-1"><g id="Layer_1" data-name="Layer 1"><path class="cls-2" d="M442.82,290.74c-.15-5.55-.58-11-1.26-16.44C431,189.76,358.7,124.36,271.11,124.36c-94.87,0-171.79,76.74-171.79,171.41A170.29,170.29,0,0,0,124.39,385q1.56,2.55,3.2,5,2.85,4.31,5.93,8.41,3.45,4.59,7.19,8.93c.66-4.69,1.42-9.2,2-13.23.39-2.49.76-4.88,1.13-7.19,1.9-12.1,3.52-21.81,4.9-29.61,6.09-34.49,7.42-31.66,7.42-31.66l2.7.13.12.36v0c.63,6.25-1.38,10.35,1.07,13.4-.18,3.32.15,5.71,4,7.67,19.49,9.8,10.35-22.75,72.83-5.52A82,82,0,0,1,268.53,358c12.59,10.3,19.41,20.64,33.91,21,17.92.43,21.81-11.66,27.74-22.2,5.37-9.56,12.43-17.85,33.18-14.31,34.39,5.85,48.07-.77,58.55-11,5.92-5.76,11.81-3.68,17.36-.54.29-1.43.58-2.86.84-4.29.22-1.21.43-2.41.62-3.62,0,0,0,0,0,0,0-.24.08-.47.11-.71q.87-5.5,1.37-11.13.18-2,.3-3.93c.06-.77.1-1.55.15-2.33,0-.39,0-.79,0-1.19s.05-1,.06-1.54q.14-3.24.13-6.49C442.9,294.09,442.88,292.41,442.82,290.74ZM229.4,445.17c-15.78,0-30.34-.11-43-.26a172.3,172.3,0,0,0,35.54,15.15,172.2,172.2,0,0,0,49.2,7.13h.21a173.8,173.8,0,0,0,24.83-1.81,170.9,170.9,0,0,0,40.36-11.05c2-.84,4.05-1.71,6-2.62a173.78,173.78,0,0,0,17.9-9.51C315.9,444.5,268.84,445.17,229.4,445.17Z" transform="translate(-99.32 -124.36)"/><path d="M485.89,303.9c-.41,3.35-2.38,19.31-5,39.79-13.22,2.76-29.2,5-46.95,6.86-31,3.21-67.33,5.15-103.76,6.27,5.37-9.56,12.43-17.85,33.18-14.31,34.39,5.85,48.07-.77,58.55-11,5.92-5.76,11.81-3.68,17.36-.54,5.78,3.26,11.19,7.67,15.89,5.58,13.36-5.93,4.89-17.62,17.88-27.7,1-.78,2-1.57,2.93-2.38,3.28-.5,5-.78,5-.78C484.05,305.19,485.46,304.55,485.89,303.9Z" transform="translate(-99.32 -124.36)"/><path d="M268.53,358c-53,.52-99.22-.26-119.75-.7,6.09-34.49,7.42-31.66,7.42-31.66l2.7.13.12.36v0c.63,6.25-1.38,10.35,1.07,13.4-.18,3.32.15,5.71,4,7.67,19.49,9.8,10.35-22.75,72.83-5.52A82,82,0,0,1,268.53,358Z" transform="translate(-99.32 -124.36)"/><path class="cls-3" d="M466.53,305.14h0c-6.55.62-14.62,1.36-24,2.18-11.78,1-25.6,2.19-41,3.41h-.13c-33,2.6-73.24,5.44-116.45,7.72h-.24c-40.67,2.15-84,3.81-126.23,4.33h-.82l-1.33,0c-5.39.66-10,6-13.85,13.57-7.71,15.14-12.52,39.32-14.85,53.62-1.14,7-1.69,11.67-1.69,11.67-12.22,68.63,9,71.65,9,71.65,47.07-.85,93.69-3.2,136.43-6.15q12.66-.87,24.83-1.81c97.24-7.46,169-17.27,170.16-17.42h0c.45-2.53.94-5.46,1.46-8.72.41-2.57.84-5.35,1.28-8.3-28.86,5.65-67.66,9.15-108.58,11.26h0c-44.55,2.3-91.61,3-131,3-15.78,0-30.34-.11-43-.26-20.05-.23-35.45-.58-43.64-.79-4-7.71-4-18.84-2.88-29.79.24-2.34.54-4.68.86-7,.66-4.69,1.42-9.2,2-13.23.39-2.49.76-4.88,1.13-7.19,1.9-12.1,3.52-21.81,4.9-29.61,6.09-34.49,7.42-31.66,7.42-31.66l2.7.13.12.36v0c.63,6.25-1.38,10.35,1.07,13.4-.18,3.32.15,5.71,4,7.67,19.49,9.8,10.35-22.75,72.83-5.52A82,82,0,0,1,268.53,358c12.59,10.3,19.41,20.64,33.91,21,17.92.43,21.81-11.66,27.74-22.2,5.37-9.56,12.43-17.85,33.18-14.31,34.39,5.85,48.07-.77,58.55-11,5.92-5.76,11.81-3.68,17.36-.54,5.78,3.26,11.19,7.67,15.89,5.58,13.36-5.93,4.89-17.62,17.88-27.7,1-.78,2-1.57,2.93-2.38,3.28-.5,5-.78,5-.78,3.07-.54,4.48-1.18,4.91-1.83.05-.43.08-.65.08-.65S479,304,466.53,305.14Z" transform="translate(-99.32 -124.36)"/><path class="cls-4" d="M476.87,374.7c-1.1,8.32-2.22,16.73-3.33,24.85-18.93,4.66-45,8-74.28,10.38-92.22,7.48-216.6,5.38-252,4.57l-7.36-.17c.24-2.34.54-4.68.86-7,.66-4.69,1.42-9.2,2-13.23.39-2.49.76-4.88,1.13-7.19,14.43.35,47.78,1,89.21,1,56.39,0,127.74-1.26,186.72-6.31C440.81,379.86,460.25,377.58,476.87,374.7Z" transform="translate(-99.32 -124.36)"/><path class="cls-5" d="M480.89,343.69c-.07.53-.14,1.07-.2,1.61-.12.91-.24,1.84-.36,2.78-.21,1.61-.42,3.25-.63,4.9-.1.74-.19,1.49-.29,2.25q-.37,2.89-.76,5.88l-.39,3c-.2,1.5-.39,3-.59,4.52-.27,2-.53,4.05-.8,6.08-16.62,2.88-36.06,5.16-57.06,7-59,5-130.33,6.31-186.72,6.31-41.43,0-74.78-.68-89.21-1,1.9-12.1,3.52-21.81,4.9-29.61,20.53.44,66.7,1.22,119.75.7,12.59,10.3,19.41,20.64,33.91,21,17.92.43,21.81-11.66,27.74-22.2,36.43-1.12,72.78-3.06,103.76-6.27C451.69,348.71,467.67,346.45,480.89,343.69Z" transform="translate(-99.32 -124.36)"/><path class="cls-6" d="M139.37,357.11c1.87.05,5.07.13,9.41.22-1.38,7.8-3,17.51-4.9,29.61-3.94-.09-6.47-.16-7.38-.19l.34-10.29.63-19.4Z" transform="translate(-99.32 -124.36)"/><path class="cls-6" d="M330.18,356.82c-5.93,10.54-9.82,22.63-27.74,22.2-14.5-.35-21.32-10.69-33.91-21l5.13,0c17-.19,34.6-.52,52.25-1Z" transform="translate(-99.32 -124.36)"/><path class="cls-7" d="M473.54,399.55l-.33,2.39-.33,2.38c-.21,1.58-.43,3.14-.65,4.68-.14,1-.29,2.06-.43,3.07-.19,1.35-.38,2.69-.57,4q-.51,3.59-1,7c-.09.59-.18,1.18-.26,1.75s-.17,1.15-.25,1.71c-.11.75-.22,1.5-.33,2.23s-.22,1.46-.33,2.18c-28.86,5.65-67.66,9.15-108.58,11.26h0c-44.55,2.3-91.61,3-131,3-15.78,0-30.34-.11-43-.26-20.05-.23-35.45-.58-43.64-.79-4-7.71-4-18.84-2.88-29.79l7.36.17c35.45.81,159.83,2.91,252.05-4.57C428.56,407.55,454.61,404.21,473.54,399.55Z" transform="translate(-99.32 -124.36)"/><path class="cls-6" d="M142.73,444.12,136.5,444l.93-29.69,2.42.07C138.7,425.28,138.71,436.41,142.73,444.12Z" transform="translate(-99.32 -124.36)"/><path class="cls-3" d="M476.48,306.09l-.51.42c-1,.81-1.92,1.6-2.93,2.38-13,10.08-4.52,21.77-17.88,27.7-4.7,2.09-10.11-2.32-15.89-5.58-5.55-3.14-11.44-5.22-17.36.54-10.48,10.19-24.16,16.81-58.55,11-20.75-3.54-27.81,4.75-33.18,14.31-5.93,10.54-9.82,22.63-27.74,22.2-14.5-.35-21.32-10.69-33.91-21A82,82,0,0,0,237,341.74c-62.48-17.23-53.34,15.32-72.83,5.52-3.89-2-4.22-4.35-4-7.67s.89-7.66-1.07-13.4v0l-.12-.36a31.56,31.56,0,0,0-1.28-3c-1.93-4-5.16-8.51-10.47-13.8-2.14-2.13-4.62-4.38-7.49-6.76a9.87,9.87,0,0,0,2.66-2.13l.34-.4h0a11.73,11.73,0,0,0,1-1.44,2.53,2.53,0,0,0,.13-.22c.12-.22.24-.44.35-.67,2.31-4.83,4.77-9.58,7.45-14.22,1.39-2.42,2.91-4.85,4.47-7.15a77.47,77.47,0,0,1,4.94-6.57,61.44,61.44,0,0,1,5.66-5.75l.62-.58a10.81,10.81,0,0,0,1.08-.63c-.05,0,2.77-1.34,2.18-1.17,5.14-2,8.27-1.91,14.42-1.7,11.46.39,23,2.71,35.56,4.29q10,1.25,19.92,2.6l1.58.21q10.74,1.46,21.47,3c30,4.19,60,8.62,90.13,12,7.55.84,15.12,1.48,22.69,2,1,4.32,4.08,8.25,8.56,9.09q13.56,2.55,27.17,4.85c2.68.45,5.37.89,8.05,1.31l3.5.55.91.14q4.41.69,8.84,1.33c3.14.46,6.29.89,9.45,1.32l1.11.14c1.47.2,2.95.39,4.43.57a1.07,1.07,0,0,0,.25,0l.49.07h0l2.51.31h0l3.88.46c3.64.42,7.32.88,11,1.3h0l3,.33C471.83,305.71,474.16,305.92,476.48,306.09Z" transform="translate(-99.32 -124.36)"/><path class="cls-8" d="M469.52,305.46h0a19.07,19.07,0,0,0-2,2.31h0c-6.7,8.9-2.07,18.23-13.54,23.32-4.14,1.83-8.83-1.36-13.84-4.38-6.14-3.7-12.76-7.12-19.42-.66-10.48,10.17-24.16,16.77-58.53,10.93-24.82-4.22-30.06,8.43-36.25,20-4.7,8.73-10,16.83-24.69,16.47-11.87-.29-18.6-7.27-27.56-15.44-8.51-7.76-19-16.58-37.9-21.77-62.49-17.19-53.34,15.29-72.83,5.51a8.43,8.43,0,0,1-2.83-2.13c-2.45-3-.44-7.15-1.07-13.4v0c0-.12,0-.24,0-.36a23.94,23.94,0,0,0-.55-3c-1.4-5.63-5.29-12.76-15.34-22l-.78-.71.34-.4h0a11.73,11.73,0,0,0,1-1.44,2.53,2.53,0,0,0,.13-.22c.12-.22.24-.44.35-.67,2.31-4.83,4.77-9.58,7.45-14.22,1.39-2.42,2.91-4.85,4.47-7.15,6.79-1.36,13.69-2.43,20.6-3.41,10.08-1.43,20.26-2.54,30.45-3.53l.46-.05.77-.07,3.4-.3,6.54-.57c4.19-.35,8.38-.67,12.58-1,3.19-.24,6.38-.43,9.58-.59l1.58.21q10.74,1.46,21.47,3c30,4.19,60,8.62,90.13,12,7.55.84,15.12,1.48,22.69,2,1,4.32,4.08,8.25,8.56,9.09q13.56,2.55,27.17,4.85c2.68.45,5.36.88,8.05,1.31l3.5.55.91.14q4.41.69,8.84,1.33c3.14.46,6.29.89,9.45,1.32l1.11.14c1.47.2,2.95.39,4.43.57a1.07,1.07,0,0,0,.25,0l.5.07h0l2.51.31h0l3.88.46c3.64.42,7.32.88,11,1.3h0Z" transform="translate(-99.32 -124.36)"/><path class="cls-9" d="M485.89,303.9c-.43.65-1.84,1.29-4.91,1.83,0,0-1.73.28-5,.78-2.16.33-5,.76-8.47,1.27h0c-6.41.93-15,2.13-25.28,3.47C383.47,318.87,267.27,331.13,159,325.8h-.09l-2.7-.13s-1.33-2.83-7.42,31.66c-1.38,7.8-3,17.51-4.9,29.61-.37,2.31-.74,4.7-1.13,7.19-.62,4-1.38,8.54-2,13.23-.32,2.29-.62,4.63-.86,7-1.15,10.95-1.14,22.08,2.88,29.79,3.32,6.38,9.38,10.43,19.79,10.13q20.39-.58,40.81-.93c46.34-.83,92.77-1,139.22-1.61q18.72-.25,37.44-.65c28.78-.62,57.56-1.57,86.33-3.11h0c-.52.58-19.65,19-329.55,27.42,0,0-28.19-4-13.4-81.88,0,0,.35-3.14,1-8.52,3-23.94,12.5-92.3,26.14-126,1.13-2.8,2.29-5.36,3.47-7.63l0,0c2.24-4.31,4.59-7.6,7-9.56a8,8,0,0,1,5.53-2.07s110.59,10.68,276.25,51.05q19,4.62,38.9,9.77S487,302.22,485.89,303.9Z" transform="translate(-99.32 -124.36)"/><path class="cls-10" d="M324.13,298.47" transform="translate(-99.32 -124.36)"/><path class="cls-10" d="M324,299.23" transform="translate(-99.32 -124.36)"/><path class="cls-11" d="M287.34,361.51s.47.27,1.26.68a33.72,33.72,0,0,0,3.32,1.5,23.45,23.45,0,0,0,4.7,1.29,20.73,20.73,0,0,0,2.64.22,19.32,19.32,0,0,0,2.72-.15,22,22,0,0,0,2.75-.48c.46-.09.9-.23,1.36-.34s.88-.27,1.33-.39c.86-.28,1.73-.55,2.53-.86s1.58-.59,2.3-.87,1.38-.54,2-.77l1.56-.62c.88-.34,1.43-.52,1.43-.52a10.83,10.83,0,0,1-.72,1,10.24,10.24,0,0,1-1,1.1,15,15,0,0,1-1.44,1.35,17.53,17.53,0,0,1-2,1.46,20.14,20.14,0,0,1-2.55,1.42,21.75,21.75,0,0,1-6.8,2,19.73,19.73,0,0,1-3.92.08,18.1,18.1,0,0,1-3.67-.67,14.39,14.39,0,0,1-5.16-2.69,9.89,9.89,0,0,1-2.24-2.62A4.46,4.46,0,0,1,287.34,361.51Z" transform="translate(-99.32 -124.36)"/><path class="cls-11" d="M360.4,328.51l2.51.43,2.85.44c1.1.17,2.34.32,3.69.5s2.8.34,4.34.47,3.15.27,4.82.36,3.38.14,5.12.12,3.48-.07,5.21-.21c.86-.08,1.73-.14,2.58-.26l1.27-.16L394,330c.83-.12,1.62-.32,2.43-.47s1.56-.39,2.34-.57l2.2-.66,2.07-.73,1.89-.79c.61-.26,1.16-.55,1.73-.81s1.05-.55,1.55-.81,1-.49,1.39-.76c.8-.53,1.6-.94,2.17-1.34,1.16-.79,1.88-1.24,1.88-1.24s-.37.6-1.13,1.64a21.12,21.12,0,0,1-1.58,1.8c-.3.35-.72.67-1.11,1.05a14.57,14.57,0,0,1-1.35,1.11c-.5.36-1,.75-1.6,1.13l-1.87,1.11c-.68.35-1.4.69-2.13,1s-1.56.63-2.37.94a40.42,40.42,0,0,1-5.32,1.47l-1.41.27c-.47.09-1,.15-1.44.22-1,.15-1.93.23-2.91.32s-2,.1-2.93.15-1.94,0-2.9,0l-1.43-.05-1.4-.1c-.93-.06-1.84-.17-2.73-.28a63,63,0,0,1-9.41-1.91,54,54,0,0,1-6.13-2.17C361.14,328.93,360.4,328.51,360.4,328.51Z" transform="translate(-99.32 -124.36)"/><path class="cls-11" d="M159.21,317.24l47.1-.94,22.81-.54,25.44-.69c4.41-.14,8.9-.23,13.44-.4l13.76-.47,7-.22,7-.28,14.09-.58c9.4-.38,18.8-.85,28.06-1.28l27.16-1.54,13-.88c4.24-.29,8.39-.49,12.42-.84,8.06-.68,15.68-1.26,22.72-1.81,7-.71,13.47-1.32,19.18-1.85l4.15-.39,3.84-.45,6.78-.79L460,301.85l-12.75,2.33-6.73,1.19c-1.22.22-2.5.46-3.82.66l-4.13.6c-5.69.82-12.11,1.75-19.12,2.71s-14.64,1.71-22.7,2.59-16.59,1.56-25.4,2.33c-4.41.38-8.89.65-13.43,1s-9.13.65-13.77.94c-9.27.48-18.69,1-28.11,1.44l-14.12.49-7,.25-7,.18c-9.28.25-18.41.4-27.25.48-4.42,0-8.77.12-13,.11l-12.47,0c-8.1,0-15.76-.14-22.83-.23-14.14-.25-25.92-.63-34.16-1-4.12-.15-7.36-.34-9.57-.45Z" transform="translate(-99.32 -124.36)"/><path class="cls-11" d="M152.22,305.72s.31-1.42.86-3.9c.25-1.24.56-2.74.91-4.46s.72-3.68,1.13-5.81.87-4.45,1.46-6.89,1.21-5,2-7.66c.22-.66.44-1.33.65-2s.51-1.33.76-2,.54-1.35.82-2,.57-1.35.92-2,.67-1.32,1-2l1.14-2c.36-.66.81-1.28,1.23-1.91l.65-.95.16-.23,0,0,.1-.13,0,0,.09-.11.34-.42,1.39-1.66c.48-.56,1.14-1.13,1.71-1.69l.89-.84c.3-.25.63-.47.94-.7.64-.46,1.25-.94,1.91-1.35a28.34,28.34,0,0,1,8.35-3.37,38.44,38.44,0,0,1,8.15-.78c1.29,0,2.53.07,3.72.14s2.34.22,3.43.38c2.19.27,4.16.64,5.9,1s3.25.67,4.49.95c2.48.56,3.9.92,3.9.92h-1.05c-.68,0-1.69,0-3,0l-4.57-.13c-1.76-.05-3.74-.09-5.88-.11s-4.45.07-6.85.26a35.79,35.79,0,0,0-3.63.48c-1.23.18-2.44.51-3.68.81a27.62,27.62,0,0,0-7,3.17c-.54.36-1,.79-1.55,1.17-.26.2-.53.39-.77.6l-.67.65c-.45.46-.91.82-1.37,1.35L170,264.07l-.34.42-.09.11,0,0,.06-.08,0,0-.15.21-.58.84c-.39.57-.8,1.12-1.13,1.72l-1.07,1.75-1,1.81a71,71,0,0,0-3.29,7.39c-.94,2.47-1.82,4.91-2.59,7.25l-2.19,6.64c-.67,2.07-1.35,4-2,5.62s-1.21,3.1-1.72,4.27-.95,2.07-1.24,2.68Z" transform="translate(-99.32 -124.36)"/><path class="cls-11" d="M164.16,331.15s.13.24.31.65.45,1,.77,1.6a7,7,0,0,0,1.25,1.84,3,3,0,0,0,.8.54,2.51,2.51,0,0,0,.89.18,6.28,6.28,0,0,0,1.32-.07c.5-.07,1-.17,1.56-.29,1.06-.22,2.1-.53,3-.75s1.74-.44,2.32-.58,1-.18,1-.18a7.15,7.15,0,0,1-.49.6,7.33,7.33,0,0,1-.63.65c-.26.24-.57.5-.92.78s-.78.55-1.25.83a14.21,14.21,0,0,1-1.61.8,9.69,9.69,0,0,1-1,.35,8.08,8.08,0,0,1-1.08.29,9.25,9.25,0,0,1-2.6.22,6.21,6.21,0,0,1-2.78-.77,4.13,4.13,0,0,1-1.57-1.54,3.64,3.64,0,0,1-.48-1.49,4.39,4.39,0,0,1,.05-1.27,5,5,0,0,1,.66-1.77A3.64,3.64,0,0,1,164.16,331.15Z" transform="translate(-99.32 -124.36)"/><path class="cls-8" d="M343.7,299l-1.92,0c-1.25,0-3.09,0-5.41.1l-19.24.42-27.06.59-15.22.19-7.81,0c-2.62,0-5.25,0-7.88,0-5.25,0-10.5-.14-15.66-.24l-7.67-.24-7.48-.33c-4.91-.26-9.65-.54-14.15-.89l-6.55-.55-6.12-.6c-3.9-.47-7.51-.84-10.69-1.32l-2.32-.32-2.14-.34-3.8-.6-5.31-.94-1.9-.32,1.74.81c1.14.5,2.8,1.34,5,2.19s4.83,2,8,2.9c1.55.49,3.21,1.07,5,1.58l5.58,1.53,6.12,1.44c2.12.47,4.33.86,6.6,1.31,4.54.82,9.36,1.55,14.36,2.14s10.18,1,15.45,1.34,10.62.47,16,.52,10.71-.05,16-.29,10.43-.55,15.42-1c10-.85,19.25-2.08,27.15-3.39,3.95-.66,7.55-1.36,10.74-2s5.95-1.3,8.23-1.83,4-1,5.26-1.36S343.7,299,343.7,299Z" transform="translate(-99.32 -124.36)"/><path class="cls-11" d="M439.7,321.82l3.79,1.85c1.13.51,2.43,1.11,3.83,1.63a16.88,16.88,0,0,0,4.35,1.07,7.06,7.06,0,0,0,2.07-.1,6.11,6.11,0,0,0,1.8-.69,7.2,7.2,0,0,0,1.44-1.26,10.87,10.87,0,0,0,1.12-1.48c.29-.52.6-1,.81-1.45s.44-.85.57-1.19c.3-.68.5-1.07.5-1.07s0,.43,0,1.19a8.06,8.06,0,0,1-.11,1.37,9.6,9.6,0,0,1-.37,1.78,9,9,0,0,1-.88,2,7.63,7.63,0,0,1-1.69,2,7.37,7.37,0,0,1-2.59,1.31,8.7,8.7,0,0,1-2.91.24,13.63,13.63,0,0,1-5.1-1.58,20.81,20.81,0,0,1-5.92-4.72A11.66,11.66,0,0,1,439.7,321.82Z" transform="translate(-99.32 -124.36)"/><path class="cls-12" d="M188.9,245.93c-1.41,11.85-12.42,20.27-24.62,18.83s-21-12.2-19.56-24,12.43-20.28,24.62-18.83,20.95,12.2,19.56,24.05Z" transform="translate(-99.32 -124.36)"/><path class="cls-13" d="M188.63,247.5a22.06,22.06,0,0,1-3.62,8.35c-21.17,16.36-44.61-1.13-39.21-19.71a21.33,21.33,0,0,1,7.54-10.1c-11.61,20,16.19,38,35.29,21.46Z" transform="translate(-99.32 -124.36)"/><path class="cls-14" d="M184.49,241.14A9.31,9.31,0,1,1,176.32,231a9.2,9.2,0,0,1,8.17,10.13Z" transform="translate(-99.32 -124.36)"/><path class="cls-12" d="M181.3,279.48c-1.4,11.85-12.42,20.27-24.62,18.83s-21-12.2-19.56-24.05,12.43-20.28,24.63-18.83,20.94,12.2,19.55,24.05Z" transform="translate(-99.32 -124.36)"/><path class="cls-13" d="M181,281.05a22.06,22.06,0,0,1-3.62,8.35c-21.17,16.36-44.61-1.13-39.21-19.71a21.44,21.44,0,0,1,7.54-10.1c-11.61,20,16.19,38,35.29,21.46Z" transform="translate(-99.32 -124.36)"/><path class="cls-14" d="M176.89,274.69a9.31,9.31,0,1,1-8.16-10.13,9.2,9.2,0,0,1,8.16,10.13Z" transform="translate(-99.32 -124.36)"/><path class="cls-12" d="M172.74,308.33c-1.4,11.85-12.42,20.28-24.62,18.83s-21-12.19-19.56-24,12.43-20.28,24.63-18.84,20.94,12.21,19.55,24.05Z" transform="translate(-99.32 -124.36)"/><path class="cls-13" d="M172.47,309.91a22.06,22.06,0,0,1-3.62,8.35c-21.17,16.35-44.61-1.14-39.21-19.71a21.39,21.39,0,0,1,7.54-10.1c-11.61,20,16.19,38,35.29,21.46Z" transform="translate(-99.32 -124.36)"/><path class="cls-14" d="M168.34,303.55a9.32,9.32,0,1,1-8.17-10.13,9.21,9.21,0,0,1,8.17,10.13Z" transform="translate(-99.32 -124.36)"/></g></g></svg>