<svg xmlns="http://www.w3.org/2000/svg" width="548.86" height="198.83" viewBox="0 0 548.86 198.83"><title>thespACElogowithwords2</title><path d="M112.16,191.8a8.7,8.7,0,0,1-.47,1.58c-.11.26-.24.51-.37.76.31-1.75.59-3.54.83-5.39Z" transform="translate(-25.91 -50.58)" fill="#242424" stroke="#231f20" stroke-miterlimit="10"/><path d="M113.47,194.11c-.13-.24-.25-.48-.36-.73a8.28,8.28,0,0,1-.48-1.61l0-3Q113,191.51,113.47,194.11Z" transform="translate(-25.91 -50.58)" fill="#242424" stroke="#231f20" stroke-miterlimit="10"/><path d="M194.52,191.66c-7.23,13.35-20.38,21.9-34.16,23.21-16,1.51-32-6.09-44-17.34a14.23,14.23,0,0,1-2.9-3.42q-.48-2.6-.82-5.36l0,3a8.28,8.28,0,0,0,.48,1.61c.11.25.23.49.36.73,7.83,43.42,39.71,55.3,39.71,55.3H71.61s31.88-11.88,39.71-55.28c.13-.25.26-.5.37-.76a8.7,8.7,0,0,0,.47-1.58v-3.05c-.24,1.85-.52,3.64-.83,5.39a14.47,14.47,0,0,1-2.89,3.39c-12,11.25-28,18.85-44,17.34-13.77-1.31-26.93-9.86-34.17-23.21-7.93-14.65-3.94-35.35,3.21-49.45,6.14-12.11,15.26-21.93,25.19-30.08,10.15-8.33,22.07-13.48,31.61-22.89,10.4-10.25,19-23.44,22.11-38.62,0,0,0,0,0,0s0,0,0,0C115.5,65.8,124.11,79,134.52,89.24c9.54,9.41,21.46,14.56,31.61,22.89,9.93,8.15,19.05,18,25.19,30.08C198.46,156.31,202.47,177,194.52,191.66Z" transform="translate(-25.91 -50.58)" fill="#414042"/><path d="M112.15,188.75v3.05a8.7,8.7,0,0,1-.47,1.58c-.11.26-.24.51-.37.76C111.63,192.39,111.91,190.6,112.15,188.75Z" transform="translate(-25.91 -50.58)" fill="#242424"/><path d="M113.47,194.11c-.13-.24-.25-.48-.36-.73a8.28,8.28,0,0,1-.48-1.61l0-3Q113,191.51,113.47,194.11Z" transform="translate(-25.91 -50.58)" fill="#242424"/><path d="M113.27,183.09v2.39a7.68,7.68,0,0,1-.37,1.24,5.59,5.59,0,0,1-.3.6Q113,185.25,113.27,183.09Z" transform="translate(-25.91 -50.58)" fill="#fff"/><path d="M113.66,183.09c.19,1.44.39,2.85.64,4.21-.1-.19-.19-.38-.28-.58a6.27,6.27,0,0,1-.37-1.26Z" transform="translate(-25.91 -50.58)" fill="#fff"/><path d="M145.11,230.6H81.82c3.07-1.31,23.09-10.77,29.89-39h3.5C122,219.83,142,229.29,145.11,230.6Z" transform="translate(-25.91 -50.58)" fill="#7f3f98" stroke="#7f3f98" stroke-miterlimit="10"/><path d="M145.11,230.6l.41.16H81.41l.41-.16Z" transform="translate(-25.91 -50.58)" fill="#7f3f98" stroke="#7f3f98" stroke-miterlimit="10"/><path d="M178,185.37a35.46,35.46,0,0,1-4.29,6.25H118.4c-.62-.54-1.23-1.08-1.82-1.64a11.49,11.49,0,0,1-2.28-2.68c-.25-1.36-.45-2.77-.64-4.21v2.37a6.27,6.27,0,0,0,.37,1.26c.09.2.18.39.28.58.27,1.49.58,2.92.91,4.32h-3.5c.34-1.39.63-2.82.9-4.3a5.59,5.59,0,0,0,.3-.6,7.68,7.68,0,0,0,.37-1.24v-2.39q-.28,2.16-.66,4.23a10.89,10.89,0,0,1-2.26,2.66c-.6.56-1.2,1.1-1.82,1.64H53.21a36.56,36.56,0,0,1-4.29-6.25c-5.17-9.54-3.9-22.33-.13-32.73H178.14C181.92,163,183.18,175.83,178,185.37Z" transform="translate(-25.91 -50.58)" fill="#fff" stroke="#fff" stroke-miterlimit="10"/><path d="M178.14,152.64H48.79a57.38,57.38,0,0,1,2.65-6.13c4.83-9.52,12-17.24,19.8-23.64a144.9,144.9,0,0,1,13.41-9.21h57.63a142.26,142.26,0,0,1,13.41,9.21c7.81,6.4,15,14.12,19.8,23.64A55.42,55.42,0,0,1,178.14,152.64Z" transform="translate(-25.91 -50.58)" fill="#6d6e71" stroke="#6d6e71" stroke-miterlimit="10"/><path d="M142.28,113.66H84.65a70.17,70.17,0,0,0,11.43-8.79c8.14-8,14.89-18.33,17.34-30.19h.09c2.45,11.86,9.2,22.17,17.34,30.19A69.74,69.74,0,0,0,142.28,113.66Z" transform="translate(-25.91 -50.58)" stroke="#000" stroke-miterlimit="10"/><path d="M173.72,191.62a34.27,34.27,0,0,1-22.56,12c-11.79,1.11-23.57-4.05-32.76-12Z" transform="translate(-25.91 -50.58)" fill="#7f3f98" stroke="#7f3f98" stroke-miterlimit="10"/><path d="M108.53,191.62c-9.19,7.94-21,13.1-32.76,12a34.27,34.27,0,0,1-22.56-12Z" transform="translate(-25.91 -50.58)" fill="#7f3f98" stroke="#7f3f98" stroke-miterlimit="10"/><path d="M220.26,137.45c4.57-.22,5.85-3.75,6.75-8.4h2v8.33H240l-.52,3.22H229v24.45c0,5.33,2.1,6.75,5.85,6.75a10.32,10.32,0,0,0,6-1.87l1.58,2.92a13.85,13.85,0,0,1-8,2.48c-8,0-9.23-4.43-9.23-10.28V140.6h-5.55Z" transform="translate(-25.91 -50.58)" fill="#414042"/><path d="M284.23,171.05v3.23H272.61v-2.85l1.87-.23c1.43-.15,2-.6,2-2.47V150.5c0-6-1.43-10.65-9-10.65-5.85,0-11.55,5-11.55,11.18v19.8l4,.22v3.23H248.31v-2.85l1.87-.23c1.43-.15,2-.6,2-2.47V126.28c0-1.8-.45-2.1-1.88-2.18l-2.25-.15V120.8H256v22.13h.15c2.85-5.48,8.32-6.68,12.3-6.68,9.15,0,11.85,5.93,11.85,13v21.6Z" transform="translate(-25.91 -50.58)" fill="#414042"/><path d="M319.33,146c0,9.45-8.7,13.13-23.7,11.63.23,7.8,3.15,14.17,12,14.17a16,16,0,0,0,9.68-3.22l1.5,3.07a19.27,19.27,0,0,1-11.1,3.68c-11.78,0-16-8.93-16-18.15,0-12.75,6.08-20.93,16.73-20.93C315.51,136.25,319.33,139.85,319.33,146Zm-10.87-6.45c-9,0-12.3,8.1-12.68,14.55,10.5.9,19.65.3,19.65-8C315.43,141.65,312.81,139.55,308.46,139.55Z" transform="translate(-25.91 -50.58)" fill="#414042"/><path d="M358,139.78c-4.8,0-8.62,1.72-8.62,6.52s3.9,5.85,8.55,7.28c6.67,2,11.47,3.45,11.47,10.95,0,7.05-4.65,10.8-12.6,10.8-5.77,0-9.67-1.28-11.62-2.33v-7.87l3.67-.38v4.13a1.68,1.68,0,0,0,1.35,2,24.49,24.49,0,0,0,6.45,1c5.32,0,9-2.17,9-7.27,0-4.88-2.85-5.78-8.17-7.35-6.15-1.8-11.7-3.3-11.7-10.5,0-9.15,8.77-10.43,12.67-10.43,4.13,0,8.1,1,10.2,2.55v6.75l-3.52.38v-3.15c0-1.43-.3-1.95-1.36-2.25A19.9,19.9,0,0,0,358,139.78Z" transform="translate(-25.91 -50.58)" fill="#414042"/><path d="M380.68,142.85c0-1.65-.37-2.1-1.87-2.17l-2.25-.15v-3.15h7.57v5.1h.15c3.15-5.1,7.88-6.23,11.77-6.23,10.58,0,14.4,7.73,14.4,19.5,0,13.95-8.25,19.58-15.45,19.58a16.57,16.57,0,0,1-10.42-3.68h-.15v14.7l5.48.3v3.15H376.78V187l1.88-.22c1.42-.15,2-.6,2-2.48Zm3.75,24.53a14.13,14.13,0,0,0,10.2,4.42c8.32,0,11.7-7.65,11.7-16.27,0-10.2-3.15-15.68-10.58-15.68-8.09,0-11.32,5.78-11.32,11.48Z" transform="translate(-25.91 -50.58)" fill="#414042"/><path d="M415.48,174.28v-7.56l2.25-.27c2.07-.27,2.52-1,3-2.7l13.86-40.95-4.77-.45v-7.92h22L470,166.09l4.5.36v7.83H451.39v-7.56l2.88-.27c1.71-.27,2.07-1,1.44-2.7l-2-5.67H434.92l-2.79,8.1,4.59.27v7.83Zm21.24-24.75h15.21L444.55,126h-.36Z" transform="translate(-25.91 -50.58)" fill="#414042"/><path d="M506.11,123.52c-10.53,0-16,7.11-16,20.16,0,12.6,4.41,21.42,16.38,21.42a24.3,24.3,0,0,0,5.85-.63c1.35-.36,1.62-1.08,1.62-2.61v-6.21l9.81.72v15.39c-4.59,2.43-11.16,3.69-18.09,3.69-18.36,0-28.89-10.26-28.89-30.69,0-23.58,14.13-31.41,28.53-31.41,6.39,0,13.23,1.17,18,3.6v15l-9.81.72v-5.94c0-1.44-.18-2.16-1.53-2.52A25.39,25.39,0,0,0,506.11,123.52Z" transform="translate(-25.91 -50.58)" fill="#414042"/><path d="M531,166.81l2.07-.27c2.79-.27,3.24-.45,3.24-3.06V122.62l-4.77-.36v-7.83h42.3V129l-9.9.72v-4c0-1.71-.54-2.34-2.25-2.34H549.22V139h21.06v9.36H549.22v17h13.5c1.71,0,2.25-.63,2.25-2.43v-4.59l9.81.72v15.21H531Z" transform="translate(-25.91 -50.58)" fill="#414042"/></svg>