<svg id="Layer_1" data-name="Layer 1" xmlns="http://www.w3.org/2000/svg" viewBox="0 0 1745.83 502.86"><defs><style>.cls-1{fill:none;stroke-width:2px;}.cls-1,.cls-2,.cls-3,.cls-4,.cls-5{stroke:#231f20;stroke-miterlimit:10;}.cls-3{fill:#7f4f98;}.cls-4{fill:#fff;}.cls-5{fill:#6d6e71;}.cls-6{font-size:50px;font-family:BreeSerif, Bree Serif;}.cls-6,.cls-7{fill:#414042;}.cls-7{font-size:70px;font-family:BreeSerif-BoldItalic, Bree Serif;font-weight:700;font-style:italic;}.cls-8{letter-spacing:-0.01em;}.cls-9{letter-spacing:-0.02em;}.cls-10{letter-spacing:-0.01em;}</style></defs><title>banner</title><path class="cls-1" d="M1819.83,0s-223.39,266.8-539.19,0c0,0-563.3,296.11-1205.46,0" transform="translate(-74.76 1.2)"/><polygon class="cls-2" points="1398.13 69.44 1398.13 433.61 1314.4 501.81 1314.4 69.44 1398.13 69.44"/><polygon class="cls-3" points="1649.31 69.44 1649.31 501.81 1565.58 433.61 1565.58 69.44 1649.31 69.44"/><polygon class="cls-4" points="1565.58 69.44 1565.58 433.61 1481.86 365.41 1481.86 69.44 1565.58 69.44"/><polygon class="cls-5" points="1481.86 69.44 1481.86 365.41 1398.13 433.61 1398.13 69.44 1481.86 69.44"/><rect class="cls-4" x="313.64" y="95.38" width="155.13" height="62.09" transform="translate(-41.34 -74.89) rotate(11.6)"/><rect class="cls-4" x="691.61" y="122.78" width="94.33" height="59.46" transform="translate(-81.5 38.58) rotate(-2.89)"/><rect class="cls-4" x="499.85" y="120.74" width="160.04" height="94.33" transform="translate(-63.96 -32.38) rotate(3.35)"/><rect class="cls-4" x="815.87" y="114.67" width="104.52" height="62.65" transform="translate(-85.72 100.57) rotate(-6.51)"/><text class="cls-6" transform="matrix(0.98, 0.2, -0.2, 0.98, 246.58, 130.68)">What</text><text class="cls-7" transform="translate(446.52 189.72) rotate(3.35)">n<tspan class="cls-8" x="41.58" y="0">o</tspan><tspan x="79.24" y="0">t</tspan></text><text class="cls-6" transform="translate(640.19 169.33) rotate(-2.89)"><tspan class="cls-9">t</tspan><tspan x="17.75" y="0">o</tspan></text><text class="cls-6" transform="translate(751.82 165.45) rotate(-6.51)">s<tspan class="cls-10" x="22.25" y="0">a</tspan><tspan x="49.4" y="0">y:</tspan></text></svg>