<svg id="Layer_1" data-name="Layer 1" xmlns="http://www.w3.org/2000/svg" viewBox="0 0 13.21 15.52"><defs><style>.cls-1{fill:#231f20;}.cls-2{fill:#414042;}.cls-3{fill:#fff;}.cls-4{fill:#7f4f98;}.cls-5{fill:#6d6e71;}</style></defs><title>favicon</title><polygon class="cls-1" points="3.94 0 3.94 0 3.94 0 3.94 0"/><polygon class="cls-1" points="3.94 0 3.94 0 3.94 0 3.94 0"/><path class="cls-2" d="M13.81,11.18A3.37,3.37,0,0,1,11.2,13a4.44,4.44,0,0,1-3.36-1.32,1.38,1.38,0,0,1-.22-.26c0-.13,0-.27-.06-.41v.23a.53.53,0,0,0,0,.12l0,.06a5.43,5.43,0,0,0,3,4.22H4.42a5.43,5.43,0,0,0,3-4.22.14.14,0,0,0,0-.06.56.56,0,0,0,0-.12V11l-.06.41a1.38,1.38,0,0,1-.22.26A4.44,4.44,0,0,1,3.88,13a3.36,3.36,0,0,1-2.61-1.77,4.35,4.35,0,0,1,.24-3.77,7.21,7.21,0,0,1,1.93-2.3c.77-.64,1.68-1,2.41-1.75A5.91,5.91,0,0,0,7.54.41h0A5.84,5.84,0,0,0,9.23,3.36c.73.72,1.64,1.11,2.41,1.75a7.05,7.05,0,0,1,1.92,2.3A4.32,4.32,0,0,1,13.81,11.18Z" transform="translate(-0.93 -0.07)"/><path class="cls-3" d="M7.47,10.82c0-.12,0-.23,0-.36v.2a.26.26,0,0,1,0,.11Z" transform="translate(-0.93 -0.07)"/><path class="cls-3" d="M7.55,10.46c0,.13,0,.24.06.34l0,0,0-.12Z" transform="translate(-0.93 -0.07)"/><path class="cls-4" d="M10.14,14.34H4.94a4.45,4.45,0,0,0,2.45-3.18h.3A4.44,4.44,0,0,0,10.14,14.34Z" transform="translate(-0.93 -0.07)"/><path class="cls-3" d="M12.77,10.65a2.41,2.41,0,0,1-.35.51H8L7.79,11a.68.68,0,0,1-.18-.23c0-.1,0-.21-.06-.34v.19l0,.12,0,0a3.21,3.21,0,0,0,.08.36h-.3c0-.11.06-.23.08-.34l0-.05a.26.26,0,0,0,0-.11v-.2c0,.13,0,.24,0,.36a1.81,1.81,0,0,1-.18.21l-.16.13H2.67a2.12,2.12,0,0,1-.36-.51A3.37,3.37,0,0,1,2.3,8H12.78A3.37,3.37,0,0,1,12.77,10.65Z" transform="translate(-0.93 -0.07)"/><path class="cls-4" d="M2.67,11.16H7.13a3.74,3.74,0,0,1-2.65,1A2.78,2.78,0,0,1,2.67,11.16Z" transform="translate(-0.93 -0.07)"/><path class="cls-4" d="M8,11.16h4.47a2.85,2.85,0,0,1-1.82,1A3.74,3.74,0,0,1,8,11.16Z" transform="translate(-0.93 -0.07)"/><path class="cls-5" d="M12.78,8H2.3a3.48,3.48,0,0,1,.21-.48,5.79,5.79,0,0,1,1.6-1.92,11.49,11.49,0,0,1,1.11-.76H9.85A9.09,9.09,0,0,1,11,5.59a5.7,5.7,0,0,1,1.61,1.92A3.48,3.48,0,0,1,12.78,8Z" transform="translate(-0.93 -0.07)"/><path d="M9.85,4.83H5.22a6.87,6.87,0,0,0,.91-.7A4.93,4.93,0,0,0,7.54,1.66,4.93,4.93,0,0,0,9,4.13,7.5,7.5,0,0,0,9.85,4.83Z" transform="translate(-0.93 -0.07)"/></svg>